<mxfile host="app.diagrams.net" modified="2023-11-12T07:45:16.896Z" agent="Mozilla/5.0 (Windows NT 10.0; Win64; x64; rv:109.0) Gecko/20100101 Firefox/119.0" version="22.1.0" etag="b9S3xi0toOwgLhTeExMw" type="github">
  <diagram name="Page-1" id="pyKxbYcPVK4zDAC6TI97">
    <mxGraphModel>
      <root>
        <mxCell id="0" />
        <mxCell id="1" parent="0" />
      </root>
    </mxGraphModel>
  </diagram>
</mxfile>
